<?xml version="1.0" encoding="UTF-8"?>
<svg version="1.1" xmlns="http://www.w3.org/2000/svg" width="1090" height="257">
<path d="M0 0 C359.7 0 719.4 0 1090 0 C1090 84.81 1090 169.62 1090 257 C730.3 257 370.6 257 0 257 C0 172.19 0 87.38 0 0 Z " fill="#FCFDFD" transform="translate(0,0)"/>
<path d="M0 0 C0.95583984 -0.020625 1.91167969 -0.04125 2.89648438 -0.0625 C10.55666164 -0.10427329 17.41892158 0.78460445 23.65625 5.54296875 C34.16469347 16.25230893 38.46927306 35.47448093 43.0234375 49.38671875 C44.4190914 53.61845494 45.93173234 57.8064881 47.4375 62 C49.42219868 67.5407723 51.13473078 73.06614438 52.6015625 78.76953125 C53.56949807 82.14666909 54.87143747 85.34217858 56.25 88.5703125 C57.12440539 90.77561433 57.89903309 92.96516494 58.64135742 95.21630859 C60.43994998 100.64246813 62.27499365 106.05592746 64.11328125 111.46875 C64.47213913 112.52549927 64.83099701 113.58224854 65.20072937 114.67102051 C65.95780092 116.89987397 66.71503127 119.12867349 67.47241211 121.35742188 C68.61206754 124.71193402 69.75037711 128.06690094 70.88867188 131.421875 C71.62996922 133.6042479 72.3715028 135.78654058 73.11328125 137.96875 C73.47398712 139.0302124 73.83469299 140.0916748 74.20632935 141.18530273 C76.58551644 148.1677454 79.00878088 155.13303247 81.53352356 162.06433105 C84.53844169 170.42127719 85.70383281 179.05569086 83.375 187.75 C79.84629211 192.02722169 75.38204484 193.74864101 69.96875 194.6328125 C64.42628241 194.9175283 60.65175145 193.64404369 56.3125 190.25 C51.17204881 185.31815174 48.48893438 179.85692836 45.875 173.3125 C45.10600518 171.45420501 44.33646738 169.59613462 43.56640625 167.73828125 C43.00203857 166.35890381 43.00203857 166.35890381 42.42626953 164.95166016 C40.77432883 160.94456331 39.05004901 156.97055845 37.3125 153 C37.02189697 152.32718994 36.73129395 151.65437988 36.43188477 150.96118164 C35.22598478 147.88265978 35.22598478 147.88265978 33.3125 145.25 C30.78240025 145.12005237 28.293053 145.06596871 25.76171875 145.0703125 C24.96585861 145.07153107 24.16999847 145.07274963 23.35002136 145.07400513 C13.62278267 145.16788807 3.95612416 145.99837384 -5.72924805 146.84912109 C-8.88067396 147.1254976 -12.03294053 147.38980989 -15.18554688 147.65234375 C-32.89761997 148.05361644 -32.89761997 148.05361644 -49.6875 152.25 C-50.56814658 154.11345633 -51.36163423 156.0183766 -52.11328125 157.9375 C-52.58056641 159.11183594 -53.04785156 160.28617188 -53.52929688 161.49609375 C-54.02026527 162.74710801 -54.5104952 163.99841233 -55 165.25 C-64.84050427 190.33993877 -64.84050427 190.33993877 -74.96875 195.38671875 C-78.29685204 196.44348678 -81.19782734 196.58739577 -84.6875 196.625 C-85.88375 196.65335938 -87.08 196.68171875 -88.3125 196.7109375 C-92.2929997 196.16730444 -93.89805832 195.09071818 -96.6875 192.25 C-99.46447806 183.91906581 -97.4975896 176.17651264 -94.1015625 168.39453125 C-93.72942123 167.49918167 -93.35727997 166.60383209 -92.97386169 165.68135071 C-91.77149284 162.8004145 -90.54239912 159.93177656 -89.3125 157.0625 C-88.46879976 155.05463832 -87.62693173 153.0460058 -86.78686523 151.03662109 C-84.77609723 146.23674691 -82.74599246 141.44538517 -80.70880127 136.65667725 C-79.05467819 132.75876729 -77.43214607 128.84795583 -75.81152344 124.93603516 C-74.7070139 122.27129158 -73.59416771 119.61013396 -72.48046875 116.94921875 C-68.89897425 108.37425475 -65.35333815 99.78442556 -61.8052063 91.19561768 C-60.97912348 89.19598644 -60.15285098 87.19643356 -59.3263855 85.19696045 C-54.88833709 74.4592202 -50.46319435 63.71652755 -46.078125 52.95703125 C-45.35044728 51.17389967 -44.62274596 49.39077772 -43.89501953 47.60766602 C-42.5426357 44.29351592 -41.19537937 40.97734593 -39.85107422 37.65991211 C-27.92179107 8.32880685 -27.92179107 8.32880685 -14.6875 1.25 C-9.8855196 -0.23799078 -4.98157856 0.02634014 0 0 Z " fill="#1EBB5C" transform="translate(117.6875,31.75)"/>
<path d="M0 0 C1.60140839 -0.00744736 1.60140839 -0.00744736 3.23516846 -0.01504517 C6.75273289 -0.02960163 10.27025224 -0.03645743 13.7878418 -0.04199219 C16.24252828 -0.04774839 18.69721477 -0.05350606 21.15190125 -0.05926514 C26.29381519 -0.06975616 31.43571358 -0.07561145 36.57763672 -0.07910156 C43.15122294 -0.08458649 49.72460207 -0.10862282 56.29812336 -0.13707352 C61.36747328 -0.15573763 66.43677364 -0.16090748 71.50615501 -0.16243744 C73.928938 -0.16545524 76.3517203 -0.17345415 78.77446938 -0.18662262 C82.17011732 -0.20376401 85.5652633 -0.20178306 88.9609375 -0.1953125 C89.9519194 -0.20452728 90.94290131 -0.21374207 91.96391296 -0.22323608 C99.55577409 -0.17814205 106.57017492 0.93715019 113.11206055 4.97363281 C117.94072167 10.09494006 118.68915119 15.07932872 118.58032227 21.90039062 C117.93154995 40.14335254 110.79195955 58.4341037 105.71025085 75.83145142 C104.80779227 78.92881793 103.92211045 82.02232088 103.17456055 85.16113281 C104.38112305 85.25910156 105.58768555 85.35707031 106.83081055 85.45800781 C108.44547229 85.60820891 110.0600516 85.75929811 111.67456055 85.91113281 C112.46604492 85.97300781 113.2575293 86.03488281 114.07299805 86.09863281 C122.30848777 86.90868098 128.79822376 89.67790316 134.17456055 96.16113281 C137.79400497 103.21904944 137.3345768 111.0863488 137.3425293 118.81347656 C137.3458577 119.94580215 137.3491861 121.07812775 137.35261536 122.24476624 C137.35767111 124.64111934 137.3600241 127.03747946 137.35986328 129.43383789 C137.36203417 133.05464712 137.38016139 136.67514368 137.39916992 140.29589844 C137.49754201 179.06420498 137.49754201 179.06420498 125.79956055 191.09863281 C115.57174632 198.76443021 102.33431372 199.95193691 89.99047852 199.703125 C87.77881241 199.66073514 85.57016498 199.66212864 83.3581543 199.66894531 C74.30360668 199.62844707 65.92160793 199.10430219 58.04956055 194.22363281 C55.17462471 189.52790428 54.96618127 184.50643409 56.17456055 179.16113281 C58.7870377 175.86744197 60.19718312 174.31327245 64.41333008 173.65698242 C66.21713135 173.73444702 66.21713135 173.73444702 68.05737305 173.81347656 C68.71228729 173.83003799 69.36720154 173.84659943 70.04196167 173.86366272 C72.12944039 173.91784892 74.2135218 174.00462574 76.29956055 174.09863281 C90.19695997 174.7376728 90.19695997 174.7376728 103.17456055 170.16113281 C107.36495781 164.36852483 107.33912085 157.72917077 107.37768555 150.79003906 C107.38338562 149.99009018 107.38908569 149.1901413 107.3949585 148.36595154 C107.40437553 146.67912099 107.41092932 144.99227232 107.41479492 143.30541992 C107.42451561 140.73551245 107.4555755 138.16640031 107.48706055 135.59667969 C107.49359018 133.9528042 107.49884081 132.30892303 107.50268555 130.66503906 C107.52120575 129.52102379 107.52120575 129.52102379 107.5401001 128.35389709 C107.52034609 123.5871831 106.89719034 120.24392449 104.17456055 116.16113281 C101.34340916 114.39769649 99.19161471 113.91018877 95.88179016 113.90284729 C95.03105423 113.89601929 94.1803183 113.88919128 93.30380249 113.88215637 C92.37854767 113.88470932 91.45329285 113.88726227 90.5 113.88989258 C89.51900833 113.88466583 88.53801666 113.87943909 87.52729797 113.87405396 C85.39712944 113.86381396 83.26693588 113.85803355 81.13674355 113.85617256 C77.7607367 113.85250965 74.38502381 113.83578316 71.00907898 113.81541443 C61.41040525 113.76000605 51.8116876 113.72936724 42.21289062 113.70483398 C36.34024429 113.68891964 30.4678051 113.65865561 24.59526634 113.6200695 C22.36148472 113.60844931 20.12766598 113.60248942 17.89385414 113.60238838 C14.76104884 113.60219537 11.62881056 113.58385736 8.49609375 113.56176758 C7.58096008 113.56634476 6.66582642 113.57092194 5.72296143 113.57563782 C-1.45871158 113.49552134 -7.65828262 112.18272228 -13.76293945 108.28613281 C-18.18559016 103.72946238 -18.15510094 98.70028938 -18.09106445 92.62597656 C-18.08584778 91.79533188 -18.0806311 90.96468719 -18.07525635 90.10887146 C-17.93943403 81.43253546 -17.04168653 72.88141721 -15.90893555 64.28491211 C-15.56909682 61.67492083 -15.26114088 59.06230192 -14.9543457 56.44824219 C-14.74138436 54.77026783 -14.52661162 53.09252214 -14.30981445 51.41503906 C-14.17672882 50.25579674 -14.17672882 50.25579674 -14.04095459 49.07313538 C-13.56590667 45.64989022 -13.03758329 43.43573538 -10.90576172 40.67626953 C-6.78217235 37.67298404 -1.68313893 38.63975669 3.17456055 39.16113281 C6.91556003 40.01135997 9.45406759 41.21791136 11.8425293 44.34472656 C13.47347569 47.79314987 13.50773752 50.23494512 13.42456055 54.03613281 C13.38588867 55.90205078 13.38588867 55.90205078 13.34643555 57.80566406 C13.16705838 61.3075956 12.67905746 64.69271655 12.17456055 68.16113281 C12.05377273 70.40943323 11.97408745 72.66013492 11.92456055 74.91113281 C11.88588867 76.57402344 11.88588867 76.57402344 11.84643555 78.27050781 C11.94036802 81.1306955 11.94036802 81.1306955 13.44018555 82.98925781 C16.72955733 85.21180631 20.14825093 85.29083137 24.03149414 85.32226562 C24.99284271 85.33187317 25.95419128 85.34148071 26.94467163 85.35137939 C27.97701935 85.35562927 29.00936707 85.35987915 30.07299805 85.36425781 C31.14071442 85.36995789 32.20843079 85.37565796 33.3085022 85.38153076 C35.56625378 85.39097147 37.82401908 85.39751105 40.08178711 85.40136719 C43.52962324 85.41107667 46.97686416 85.44211102 50.42456055 85.47363281 C52.61986951 85.48016283 54.81518273 85.48541331 57.01049805 85.48925781 C58.0387973 85.50160461 59.06709656 85.51395142 60.1265564 85.52667236 C67.60471589 85.50466701 67.60471589 85.50466701 74.17456055 82.16113281 C75.60918281 79.5563258 75.60918281 79.5563258 76.28393555 76.43847656 C76.59524414 75.27687012 76.90655273 74.11526367 77.22729492 72.91845703 C77.53989258 71.67854004 77.85249023 70.43862305 78.17456055 69.16113281 C78.88547732 66.62003241 79.59906722 64.0796785 80.31518555 61.54003906 C80.84616214 59.5921144 81.3711576 57.64267258 81.89428711 55.69262695 C82.43118767 53.69902518 82.97866744 51.70849901 83.52612305 49.71777344 C83.87312849 48.42953723 84.21950622 47.14113174 84.56518555 45.85253906 C84.87488281 44.70986572 85.18458008 43.56719238 85.50366211 42.38989258 C86.17351456 39.16616673 86.44171891 36.44076191 86.17456055 33.16113281 C83.86603645 29.69834666 83.08544299 29.28105584 79.17456055 28.16113281 C76.32417388 27.96053557 73.56931351 27.86029046 70.71923828 27.8581543 C69.87946945 27.84971497 69.03970062 27.84127563 68.17448425 27.83258057 C65.40236829 27.80682734 62.63035919 27.79466038 59.8581543 27.78222656 C57.92105787 27.76603777 55.98396951 27.74885634 54.04689026 27.73072815 C48.94371305 27.68504777 43.84052458 27.65026052 38.73724365 27.61853027 C30.59487787 27.56668934 22.45263346 27.50092295 14.31041145 27.43031502 C11.48123826 27.40771061 8.65207957 27.3912851 5.82286072 27.37559509 C-21.36491015 27.1905677 -21.36491015 27.1905677 -26.82543945 22.16113281 C-29.41620701 18.74603013 -29.18477359 15.32940877 -28.82543945 11.16113281 C-27.48877214 6.90050575 -25.92660145 4.92348366 -22.07543945 2.84863281 C-15.22531515 -0.45112219 -7.4216841 0.0083209 0 0 Z " fill="#26BE5B" transform="translate(506.825439453125,37.8388671875)"/>
<path d="M0 0 C3.57689895 1.69432055 5.38286892 2.74019124 7.12646484 6.29956055 C8.05020772 9.15521174 8.31369227 11.5251526 8.4140625 14.51953125 C8.45273437 15.54111328 8.49140625 16.56269531 8.53125 17.61523438 C8.5621875 18.67033203 8.593125 19.72542969 8.625 20.8125 C8.66367187 21.88693359 8.70234375 22.96136719 8.7421875 24.06835938 C8.83618613 26.71207088 8.92184573 29.3557805 9 32 C10.07328804 31.98334541 10.07328804 31.98334541 11.16825867 31.96635437 C17.92129018 31.86604475 24.67411292 31.78998117 31.42772198 31.74093914 C34.89964849 31.71487773 38.37095792 31.67954613 41.8425293 31.62280273 C45.83648499 31.55793166 49.82979558 31.53379138 53.82421875 31.51171875 C55.06709152 31.48591232 56.30996429 31.4601059 57.59049988 31.43351746 C67.19298134 31.43039345 67.19298134 31.43039345 70.26098633 34.40551758 C72.72467842 38.0811677 73.15798593 39.97150077 73.1875 44.375 C73.20167969 45.33148438 73.21585938 46.28796875 73.23046875 47.2734375 C72.98084175 50.22665181 72.81818758 51.65877215 71 54 C64.54056846 57.70836022 58.37187491 57.38812065 51.06640625 57.29296875 C49.83333237 57.28872391 48.60025848 57.28447906 47.32981873 57.28010559 C43.40715326 57.26336737 39.48500914 57.22572265 35.5625 57.1875 C32.89649189 57.17075097 30.23048868 57.15875969 27.56445312 57.14648438 C21.04260826 57.11603692 14.52188495 57.0573026 8 57 C8 70.86 8 84.72 8 99 C14.75597656 99.07347656 14.75597656 99.07347656 21.6484375 99.1484375 C24.5195523 99.18386639 27.39063904 99.21985055 30.26171875 99.2578125 C34.80838785 99.31787722 39.35501816 99.37600077 43.90185547 99.421875 C47.57189974 99.45903259 51.24172477 99.50547023 54.91157913 99.55806351 C56.30440001 99.57644707 57.69726758 99.59161267 59.09016037 99.60334396 C78.51981837 99.77268376 78.51981837 99.77268376 85.125 104 C87.83993923 108.34390276 87.71471834 112.0134019 87 117 C86.0625 119.9375 86.0625 119.9375 84 122 C76.68322239 125.67308514 68.92010614 125.45615171 60.91796875 125.4765625 C59.57276373 125.49090313 58.22757319 125.50666555 56.88240051 125.52377319 C53.367593 125.56533034 49.8528754 125.59052351 46.33789062 125.61126709 C40.69583111 125.64729863 35.05399319 125.7082236 29.41216469 125.76975632 C27.44907016 125.7887614 25.48590571 125.80003682 23.52275085 125.81118774 C22.33083633 125.82144989 21.13892181 125.83171204 19.91088867 125.84228516 C18.86325851 125.84878082 17.81562836 125.85527649 16.73625183 125.86196899 C14.32783617 125.98346221 12.30010461 126.30859752 10 127 C9.99120064 128.17271706 9.99120064 128.17271706 9.98222351 129.36912537 C9.92410783 136.76875253 9.85192469 144.16805019 9.76428509 151.56738186 C9.71972493 155.37066429 9.68043817 159.17384314 9.65356445 162.97729492 C9.62738692 166.65389949 9.58688517 170.33010235 9.53681374 174.00645638 C9.52024195 175.40288322 9.50866775 176.79937939 9.50238609 178.19589043 C9.4113516 196.5886484 9.4113516 196.5886484 3.4375 202.5625 C-2.08547657 204.87210839 -7.32621881 205.02400131 -12.9375 202.875 C-16.38207312 199.74356989 -17.83726635 196.3325962 -18.39872742 191.7348938 C-18.40983047 190.55796967 -18.42093353 189.38104553 -18.43237305 188.16845703 C-18.44766052 187.18690895 -18.44766052 187.18690895 -18.46325684 186.18553162 C-18.49322447 184.04286966 -18.50262724 181.9006559 -18.51171875 179.7578125 C-18.5285776 178.26421644 -18.54672946 176.77063447 -18.56611633 175.27706909 C-18.61349201 171.36121014 -18.64338139 167.44540831 -18.66955566 163.52935791 C-18.69942427 159.52726973 -18.74593284 155.5253781 -18.79101562 151.5234375 C-18.87690711 143.68238853 -18.94431491 135.84132141 -19 128 C-26.683317 125.93087855 -33.93061264 125.68964762 -41.86328125 125.65625 C-43.8638874 125.63391052 -45.8644935 125.61156034 -47.86509228 125.58856964 C-52.05537751 125.54345898 -56.24580915 125.51526482 -60.43621826 125.48431396 C-63.9065559 125.45805756 -67.37676074 125.42804717 -70.8469696 125.38806152 C-73.44113302 125.35898798 -76.03541127 125.33859367 -78.62971497 125.32775879 C-80.38755562 125.30763733 -80.38755562 125.30763733 -82.1809082 125.28710938 C-83.21077347 125.27981812 -84.24063873 125.27252686 -85.30171204 125.26501465 C-88.05774574 124.99432845 -89.69081567 124.50162646 -92 123 C-94.38228598 118.95011384 -94.6017237 114.58926584 -94 110 C-92.65059348 106.68782037 -91.5207227 104.5207227 -89 102 C-85.56262521 100.78662392 -82.10538959 100.80645199 -78.48730469 100.70288086 C-77.84298492 100.68322769 -77.19866516 100.66357452 -76.53482056 100.64332581 C-74.41393811 100.57966682 -72.29293587 100.52222218 -70.171875 100.46484375 C-68.69784439 100.42181587 -67.22382508 100.37839922 -65.74981689 100.33460999 C-61.87673177 100.22059354 -58.00351589 100.11185205 -54.13024902 100.00421143 C-49.47949903 99.87386449 -44.82893797 99.73696137 -40.17834473 99.60115814 C-33.11902842 99.39575128 -26.05952362 99.19866965 -19 99 C-18.67 85.47 -18.34 71.94 -18 58 C-27.9 58 -37.8 58 -48 58 C-48.99 61.3 -49.98 64.6 -51 68 C-53.74085491 73.72883608 -57.12371053 78.87390891 -62 83 C-62.70125 83.598125 -63.4025 84.19625 -64.125 84.8125 C-68.74888354 86.72236494 -73.08709223 86.86226544 -78 86 C-81.31795055 84.3529598 -84.1535864 82.36146906 -87 80 C-86.62924385 73.72804171 -83.42812366 69.27983731 -80.25 64.0625 C-74.30772218 53.96454568 -70.62909744 44.52379117 -67.77734375 33.13671875 C-67.45721313 31.87432373 -67.45721313 31.87432373 -67.13061523 30.58642578 C-66.72423063 28.95994339 -66.33319179 27.32951131 -65.96118164 25.69482422 C-64.32972222 18.97806345 -61.32102382 13.81336221 -56.9375 8.5 C-52.12907415 6.04463361 -47.27901653 6.27136714 -42 7 C-38.68961648 8.35453551 -36.52023401 10.47976599 -34 13 C-32.76730407 20.45351029 -34.93323021 26.29144108 -38 33 C-31.73 32.67 -25.46 32.34 -19 32 C-18.98582031 30.26492187 -18.97164063 28.52984375 -18.95703125 26.7421875 C-18.91012369 24.45309863 -18.86187635 22.16403695 -18.8125 19.875 C-18.80379883 18.16183594 -18.80379883 18.16183594 -18.79492188 16.4140625 C-18.54626485 6.90983829 -18.54626485 6.90983829 -15.57421875 3.2578125 C-10.79589829 -0.93318784 -6.15948213 -0.62550453 0 0 Z " fill="#5DAB5E" transform="translate(371,34)"/>
<path d="M0 0 C1.12192245 -0.00191345 2.24384491 -0.0038269 3.39976501 -0.00579834 C5.76382676 -0.00715251 8.12789613 -0.00351006 10.49194336 0.00488281 C14.05535195 0.01552202 17.61824824 0.00499748 21.18164062 -0.0078125 C58.64862195 -0.03332683 58.64862195 -0.03332683 66.02734375 7.265625 C71.50872746 14.29304001 71.24398921 20.56474251 71.26757812 29.07739258 C71.27716699 31.16464924 71.30814342 33.25086995 71.33984375 35.33789062 C71.41307579 44.58331516 71.25077521 54.27450532 66.08984375 62.265625 C57.07274735 68.15434102 47.44422982 68.83260349 36.94921875 68.65625 C35.65663147 68.65059021 34.36404419 68.64493042 33.0322876 68.63909912 C29.63893176 68.62401565 26.24628938 68.58489064 22.85321045 68.5402832 C19.37359258 68.49895053 15.89385646 68.48100809 12.4140625 68.4609375 C5.61820131 68.41837347 -1.17719298 68.35034017 -7.97265625 68.265625 C-7.96807404 68.91803162 -7.96349182 69.57043823 -7.95877075 70.24261475 C-7.88493524 82.37059775 -7.8360975 94.42221367 -8.84765625 106.515625 C-8.92628906 107.59457031 -9.00492188 108.67351562 -9.0859375 109.78515625 C-9.88309339 119.97648772 -11.4517813 129.93664751 -14.03515625 139.828125 C-14.20853516 140.51197266 -14.38191406 141.19582031 -14.56054688 141.90039062 C-15.2825737 144.72487105 -16.05043908 147.49897349 -16.97265625 150.265625 C-17.02012008 151.89644694 -17.01057054 153.52928468 -16.96484375 155.16015625 C-16.94808594 156.11599609 -16.93132813 157.07183594 -16.9140625 158.05664062 C-16.87004497 160.05943831 -16.81805401 162.06207776 -16.7578125 164.06445312 C-16.67642391 169.57298054 -16.77960439 173.54021019 -19.97265625 178.265625 C-24.34812076 182.21421492 -26.96292581 183.6056413 -32.94140625 183.46484375 C-36.13605492 183.15152244 -37.62261175 182.48138124 -39.97265625 180.265625 C-42.79881444 174.19881621 -43.51959042 168.19774575 -43.47265625 161.578125 C-43.47056152 160.67602295 -43.4684668 159.7739209 -43.46630859 158.84448242 C-43.29034705 151.06254936 -41.80873719 143.85408127 -39.90136719 136.33227539 C-37.99611346 128.78646788 -37.01877689 121.36575898 -36.33203125 113.625 C-35.97265625 110.265625 -35.97265625 110.265625 -34.97265625 108.265625 C-34.87073053 105.40945419 -34.82901362 102.57681894 -34.83081055 99.72021484 C-34.82733612 98.83544464 -34.82386169 97.95067444 -34.82028198 97.03909302 C-34.81291799 95.11295579 -34.80757605 93.18681004 -34.80399132 91.26066208 C-34.79683284 88.20858618 -34.78116928 85.15667171 -34.76264954 82.10464478 C-34.71016229 73.42509219 -34.66223319 64.74562571 -34.64672852 56.06591797 C-34.63662748 50.75959485 -34.60724453 45.45367435 -34.56540871 40.14751053 C-34.55311951 38.12782466 -34.54797364 36.10808185 -34.55020714 34.08835983 C-34.55256914 31.2542733 -34.53032386 28.4213335 -34.50268555 25.58740234 C-34.50928696 24.7590387 -34.51588837 23.93067505 -34.52268982 23.07720947 C-34.41763239 16.48600143 -32.58831209 11.22394318 -28.18359375 6.2421875 C-27.57773437 5.79617187 -26.971875 5.35015625 -26.34765625 4.890625 C-25.75726562 4.42914063 -25.166875 3.96765625 -24.55859375 3.4921875 C-16.91607216 -0.13281519 -8.29120043 -0.03183578 0 0 Z " fill="#2BBF58" transform="translate(700.97265625,36.734375)"/>
<path d="M0 0 C1.23219017 -0.01248528 1.23219017 -0.01248528 2.48927307 -0.02522278 C5.20855429 -0.04934514 7.92759575 -0.05809755 10.64697266 -0.06469727 C12.53642856 -0.07366185 14.42588372 -0.08278366 16.31533813 -0.09205627 C20.27811408 -0.10855486 24.24080544 -0.11624798 28.20361328 -0.11914062 C33.2803966 -0.12452557 38.35638466 -0.16220638 43.43294334 -0.20788479 C47.33632303 -0.23763385 51.23951072 -0.24486371 55.14299393 -0.24586678 C57.01450875 -0.25007331 58.88602392 -0.26252496 60.75742722 -0.28338432 C63.37663925 -0.31025486 65.99400156 -0.30548696 68.61328125 -0.29296875 C69.38540451 -0.30780304 70.15752777 -0.32263733 70.95304871 -0.33792114 C74.97548858 -0.28320271 76.7385846 0.14764405 79.91470337 2.70127869 C82.57113089 6.12491584 82.65920355 7.96573905 82.43603516 12.15014648 C81.63604263 15.60011426 79.68010521 17.21567645 76.93603516 19.30639648 C74.37880286 20.58501263 72.56866413 20.41976258 69.70947266 20.40405273 C68.67822266 20.40083008 67.64697266 20.39760742 66.58447266 20.39428711 C65.50423828 20.3859082 64.42400391 20.3775293 63.31103516 20.36889648 C61.67908203 20.36212891 61.67908203 20.36212891 60.01416016 20.35522461 C57.32139727 20.34341425 54.62874327 20.32694427 51.93603516 20.30639648 C52.07632935 22.45259908 52.22341679 24.59835867 52.37353516 26.74389648 C52.45474609 27.93885742 52.53595703 29.13381836 52.61962891 30.36499023 C52.6125963 33.19209892 52.6125963 33.19209892 53.93603516 34.30639648 C55.53457558 34.42728821 57.13792443 34.485963 58.74072266 34.51733398 C59.71654297 34.54569336 60.69236328 34.57405273 61.69775391 34.60327148 C63.76528524 34.65515433 65.83302056 34.69948472 67.90087891 34.73608398 C68.87927734 34.76702148 69.85767578 34.79795898 70.86572266 34.82983398 C71.76532715 34.84965332 72.66493164 34.86947266 73.59179688 34.88989258 C76.37109702 35.3836945 77.28063175 36.05079225 78.93603516 38.30639648 C79.33447266 41.11889648 79.33447266 41.11889648 79.31103516 44.30639648 C79.32263672 45.88420898 79.32263672 45.88420898 79.33447266 47.49389648 C78.93603516 50.30639648 78.93603516 50.30639648 77.60009766 52.11889648 C74.49593392 54.33407437 71.72889685 54.42635322 68.04931641 54.40405273 C67.20409424 54.40155518 66.35887207 54.39905762 65.48803711 54.39648438 C63.88448364 54.38282837 63.88448364 54.38282837 62.24853516 54.36889648 C57.14384766 54.33795898 57.14384766 54.33795898 51.93603516 54.30639648 C51.93603516 63.54639648 51.93603516 72.78639648 51.93603516 82.30639648 C54.24603516 82.63639648 56.55603516 82.96639648 58.93603516 83.30639648 C60.5477278 83.62303528 62.15690907 83.95294534 63.76228333 84.30020142 C68.73034102 85.31116538 73.66995902 85.94078929 78.71606445 86.40551758 C79.61945651 86.48952002 80.52284857 86.57352245 81.45361614 86.66007042 C91.44955176 87.52603637 101.42801624 87.65849275 111.45556641 87.72045898 C113.42096201 87.73923915 115.38635013 87.75881719 117.35173035 87.77914429 C122.44611123 87.8297501 127.54051807 87.86975114 132.63500977 87.9072876 C137.86497022 87.94778463 143.09482953 87.99866462 148.32470703 88.04858398 C158.52841129 88.14449206 168.73217363 88.22915972 178.93603516 88.30639648 C178.99357805 90.23182686 179.03470352 92.15775282 179.06884766 94.08374023 C179.10582764 95.69236938 179.10582764 95.69236938 179.14355469 97.33349609 C178.93489495 100.32273101 178.6485607 101.56853556 176.81103516 103.86889648 C171.5764056 108.30695197 166.62307866 109.83737601 159.88134766 110.47827148 C159.10083038 110.55785095 158.32031311 110.63743042 157.5161438 110.71942139 C147.95911181 111.60770611 138.4009897 111.61126697 128.81103516 111.55639648 C127.8594754 111.55362701 126.90791565 111.55085754 125.92752075 111.54800415 C46.6710245 111.27924275 46.6710245 111.27924275 17.93603516 86.30639648 C14.47562753 90.48345658 12.71409664 95.25046858 10.63134766 100.21264648 C8.77936644 103.59229885 7.17096023 105.24555601 3.93603516 107.30639648 C-1.01503067 107.93510326 -3.03240127 107.86038433 -7.43896484 105.49389648 C-10.61129367 102.85028913 -11.94506048 101.32795118 -12.42724609 97.18530273 C-11.96917059 92.2942385 -10.30553932 88.65758062 -8.25146484 84.24389648 C-2.51859701 71.1623864 -0.69031736 59.27679589 -0.52905273 45.03588867 C-0.50963623 44.07972656 -0.49021973 43.12356445 -0.47021484 42.13842773 C-0.45958008 40.85029175 -0.45958008 40.85029175 -0.44873047 39.53613281 C0.0171294 36.83645125 0.78359748 35.95092978 2.93603516 34.30639648 C8.76252473 33.15464854 13.85668848 34.46196235 18.93603516 37.30639648 C22.27328305 40.64364438 22.91738253 44.16427815 22.95776367 48.80175781 C22.91063232 49.65535889 22.86350098 50.50895996 22.81494141 51.38842773 C22.76660156 52.31977539 22.71826172 53.25112305 22.66845703 54.21069336 C22.5843457 55.65025391 22.5843457 55.65025391 22.49853516 57.11889648 C22.44632813 58.09793945 22.39412109 59.07698242 22.34033203 60.08569336 C22.21116177 62.49295738 22.07621873 64.89975287 21.93603516 67.30639648 C22.51353516 67.59514648 23.09103516 67.88389648 23.68603516 68.18139648 C25.76936849 69.22306315 27.85270182 70.26472982 29.93603516 71.30639648 C29.60603516 54.80639648 29.27603516 38.30639648 28.93603516 21.30639648 C16.61058168 21.13600659 16.61058168 21.13600659 4.28466797 21.00854492 C2.73613515 20.97917238 1.18762893 20.94834608 -0.36083984 20.91577148 C-1.16086426 20.91464355 -1.96088867 20.91351563 -2.78515625 20.91235352 C-6.43199442 20.81861034 -8.61824341 20.6405794 -11.57910156 18.4206543 C-13.38953854 15.84282065 -13.54376741 14.43141848 -13.43896484 11.30639648 C-13.42607422 10.46077148 -13.41318359 9.61514648 -13.39990234 8.74389648 C-13.04171202 6.14493414 -12.4783729 4.50869627 -11.06396484 2.30639648 C-7.31071606 -0.19576937 -4.34812371 0.00372351 0 0 Z " fill="#2C9D5D" transform="translate(875.06396484375,109.693603515625)"/>
<path d="M0 0 C1.66869141 0.11021484 1.66869141 0.11021484 3.37109375 0.22265625 C7.16573397 1.0726185 8.95367495 2.05329897 11.5625 4.9375 C12.05078125 7.953125 12.05078125 7.953125 11.875 11.1875 C11.82988281 12.26515625 11.78476562 13.3428125 11.73828125 14.453125 C11.65126953 15.68289062 11.65126953 15.68289062 11.5625 16.9375 C12.6246875 16.96328125 13.686875 16.9890625 14.78125 17.015625 C23.93692468 17.34029431 30.77829315 17.65689387 37.9375 24.0625 C41.91800496 31.10493186 41.86350939 39.5361209 41.828125 47.44140625 C41.83003845 48.40473373 41.8319519 49.36806122 41.83392334 50.36058044 C41.8352746 52.38158431 41.83165286 54.40259717 41.82324219 56.42358398 C41.81251578 59.49548023 41.82317992 62.56679336 41.8359375 65.63867188 C41.83461595 67.61458461 41.83205364 69.59049698 41.828125 71.56640625 C41.83217346 72.47290421 41.83622192 73.37940216 41.84039307 74.31336975 C41.79037137 81.20034301 41.60823808 88.64113039 37.375 94.375 C32.07846776 99.20072937 25.93100024 99.22439937 19.125 99.0625 C18.39345703 99.05347656 17.66191406 99.04445313 16.90820312 99.03515625 C15.12615702 99.01186153 13.34428241 98.9760019 11.5625 98.9375 C11.58868408 99.51717529 11.61486816 100.09685059 11.6418457 100.6940918 C11.74620612 103.33744875 11.81094327 105.98037199 11.875 108.625 C11.91689453 109.53701172 11.95878906 110.44902344 12.00195312 111.38867188 C12.08657872 116.04307937 12.11572465 118.20635385 9.23046875 122.01953125 C4.98939474 125.06838533 1.70157776 125.29191916 -3.4375 124.9375 C-6.18304354 123.71725843 -7.86010357 122.78294613 -9.55903625 120.29530334 C-10.77649082 117.02764607 -10.70798789 113.90115793 -10.68041992 110.46264648 C-10.68231827 109.71585632 -10.68421661 108.96906616 -10.68617249 108.199646 C-10.68987147 105.73585447 -10.67918914 103.27235899 -10.66796875 100.80859375 C-10.6667764 99.0951389 -10.66632391 97.38168339 -10.6665802 95.66822815 C-10.66501688 92.07963969 -10.65673827 88.49115121 -10.64331055 84.90258789 C-10.62630816 80.30013308 -10.62249668 75.69778798 -10.62325573 71.09530544 C-10.62298398 67.55832368 -10.61750215 64.02136594 -10.61025429 60.48439217 C-10.60707001 58.78710169 -10.60510077 57.08980849 -10.60436058 55.39251518 C-10.6021952 53.02261579 -10.59344701 50.6528333 -10.58276367 48.28295898 C-10.58344345 47.2285537 -10.58344345 47.2285537 -10.58413696 46.15284729 C-10.56420934 43.1334002 -10.40081464 40.82744393 -9.4375 37.9375 C-12.4075 37.6075 -15.3775 37.2775 -18.4375 36.9375 C-18.42861755 37.59847183 -18.41973511 38.25944366 -18.4105835 38.94044495 C-18.32192228 45.83496431 -18.2616875 52.72932106 -18.21777344 59.62426758 C-18.19768851 62.19562359 -18.17041521 64.76693409 -18.13574219 67.33813477 C-18.08708919 71.03933966 -18.06449917 74.73993933 -18.046875 78.44140625 C-18.02622986 79.58646133 -18.00558472 80.73151642 -17.98431396 81.91127014 C-17.98247434 88.49095113 -18.46583421 92.60688697 -22.4375 97.9375 C-25.57715306 100.34456735 -28.56533925 100.41164213 -32.4375 99.9375 C-35.93705537 97.71051022 -37.87393293 95.74810207 -39.4375 91.9375 C-39.69146729 89.83126831 -39.69146729 89.83126831 -39.69628906 87.54638672 C-39.70259338 86.6838327 -39.70889771 85.82127869 -39.71539307 84.93258667 C-39.7113446 84.00350494 -39.70729614 83.07442322 -39.703125 82.1171875 C-39.70503845 81.14451935 -39.7069519 80.1718512 -39.70892334 79.16970825 C-39.71028493 77.10353335 -39.7065903 75.03734989 -39.69824219 72.97119141 C-39.6877041 69.87251414 -39.69805327 66.7744385 -39.7109375 63.67578125 C-39.71953727 54.36503808 -39.57246545 45.09262456 -38.671875 35.8203125 C-38.61114807 35.10406708 -38.55042114 34.38782166 -38.487854 33.64987183 C-37.93722058 28.81542676 -36.44298746 25.73290028 -33.4375 21.9375 C-28.14176236 17.9996438 -23.06981009 17.80990091 -16.625 17.875 C-15.46355469 17.88402344 -14.30210937 17.89304688 -13.10546875 17.90234375 C-12.22503906 17.91394531 -11.34460938 17.92554688 -10.4375 17.9375 C-10.48390625 16.88949219 -10.5303125 15.84148437 -10.578125 14.76171875 C-10.61564548 13.38284099 -10.65204536 12.00393242 -10.6875 10.625 C-10.72101562 9.93470703 -10.75453125 9.24441406 -10.7890625 8.53320312 C-10.84999588 5.37990091 -10.85213324 3.44750892 -8.82421875 0.953125 C-5.67307304 -0.38778807 -3.40583779 -0.27955432 0 0 Z " fill="#0CB15F" transform="translate(734.4375,112.0625)"/>
<path d="M0 0 C0.700788 -0.00282738 1.401576 -0.00565475 2.12360001 -0.00856781 C5.81873179 -0.02342367 9.51382577 -0.03274372 13.20898438 -0.03710938 C17.01189243 -0.04263284 20.81444947 -0.06677986 24.61724663 -0.09508133 C27.5598148 -0.11371051 30.50229742 -0.11891303 33.44491959 -0.12044525 C34.84751469 -0.12346212 36.25010862 -0.13145795 37.65264511 -0.14463043 C39.60934061 -0.16172556 41.56618454 -0.15796085 43.52294922 -0.15332031 C44.63338593 -0.15696594 45.74382263 -0.16061157 46.88790894 -0.16436768 C50.27586755 0.25135522 52.15519133 1.18390945 54.8828125 3.203125 C56.60675438 6.65100876 56.24639352 10.42592217 55.8828125 14.203125 C54.49497038 17.21011627 53.48776453 17.93698539 50.4765625 19.26171875 C45.49624692 20.5663449 40.63683384 20.66929079 35.5078125 20.828125 C34.48558594 20.86679687 33.46335937 20.90546875 32.41015625 20.9453125 C29.90132285 21.03910066 27.39209312 21.12218046 24.8828125 21.203125 C23.8928125 24.833125 22.9028125 28.463125 21.8828125 32.203125 C22.945 32.16832031 24.0071875 32.13351563 25.1015625 32.09765625 C41.99935503 31.70212925 41.99935503 31.70212925 47.4296875 36.59765625 C56.50411431 46.66619162 53.0690756 67.65266953 53.06811523 80.32763672 C53.07032205 83.59225121 53.08859824 86.85653782 53.10742188 90.12109375 C53.11035315 92.21874886 53.11233972 94.31640555 53.11328125 96.4140625 C53.12046677 97.37879486 53.12765228 98.34352722 53.13505554 99.3374939 C53.11456664 105.43232142 53.07357114 111.93643165 49.5625 117.171875 C45.99854319 119.35997871 41.87541635 118.85367707 37.8828125 118.203125 C34.72068196 116.22679341 33.34903293 114.73630399 32.25686646 111.14468384 C30.85428977 104.33155309 30.62150752 97.7932633 30.6875 90.8515625 C30.6903299 89.71151764 30.69315979 88.57147278 30.69607544 87.3968811 C30.70718318 83.79051786 30.73227018 80.18441195 30.7578125 76.578125 C30.76785446 74.11849319 30.77697817 71.65885746 30.78515625 69.19921875 C30.80709163 63.20043448 30.84047435 57.20179814 30.8828125 51.203125 C26.86245756 51.32204552 22.8423067 51.44633355 18.82226562 51.57543945 C17.45675074 51.61855588 16.09118998 51.66024568 14.72558594 51.70043945 C12.7544406 51.75871054 10.78346582 51.82266236 8.8125 51.88671875 C7.62897949 51.92337646 6.44545898 51.96003418 5.22607422 51.99780273 C2.04489888 52.19317067 -0.98088378 52.65569414 -4.1171875 53.203125 C-4.12527435 53.92895782 -4.13336121 54.65479065 -4.14169312 55.40261841 C-4.21978575 62.25861578 -4.30712035 69.11444057 -4.40471458 75.97018623 C-4.45456051 79.49440739 -4.50089097 83.01860027 -4.5390625 86.54296875 C-4.58315054 90.59914634 -4.6427531 94.65496935 -4.703125 98.7109375 C-4.72045181 100.6003154 -4.72045181 100.6003154 -4.73812866 102.52786255 C-4.75799835 103.70863373 -4.77786804 104.88940491 -4.79833984 106.10595703 C-4.81166351 107.14076202 -4.82498718 108.17556702 -4.8387146 109.24172974 C-5.14763595 112.52692632 -5.82534701 115.16715296 -7.1171875 118.203125 C-10.56394159 120.50096106 -12.05046862 120.50067383 -16.1171875 120.515625 C-17.1690625 120.53238281 -18.2209375 120.54914063 -19.3046875 120.56640625 C-22.1171875 120.203125 -22.1171875 120.203125 -23.76771545 119.1068573 C-25.79877634 116.24159141 -25.50616158 113.86383051 -25.52124023 110.38012695 C-25.52810349 109.69028214 -25.53496674 109.00043732 -25.54203796 108.28968811 C-25.56035242 106.00671852 -25.55645984 103.72443365 -25.55078125 101.44140625 C-25.55534314 99.85059893 -25.56064873 98.25979358 -25.56666565 96.66899109 C-25.57560755 93.3307598 -25.57316419 89.99276755 -25.56323242 86.65454102 C-25.55178223 82.39192722 -25.5718871 78.13014671 -25.60114956 73.8676424 C-25.61957238 70.57918611 -25.61920637 67.29092686 -25.61351204 64.00243187 C-25.61335935 62.43206812 -25.61936056 60.86169057 -25.63180351 59.29137611 C-25.73691825 43.84062108 -25.73691825 43.84062108 -21.1171875 37.203125 C-16.72615164 34.27576776 -12.44923761 34.76069157 -7.26953125 34.546875 C-4.02227051 34.52573276 -4.02227051 34.52573276 -2.1171875 32.203125 C-1.65556323 29.77059839 -1.65556323 29.77059839 -1.4921875 27.078125 C-1.41742187 26.16804688 -1.34265625 25.25796875 -1.265625 24.3203125 C-1.21664062 23.62164062 -1.16765625 22.92296875 -1.1171875 22.203125 C-1.78250488 22.19901611 -2.44782227 22.19490723 -3.13330078 22.19067383 C-6.17047727 22.1576208 -9.20567887 22.08696466 -12.2421875 22.015625 C-13.28890625 22.00982422 -14.335625 22.00402344 -15.4140625 21.99804688 C-24.15105372 21.74920852 -24.15105372 21.74920852 -27.8203125 18.96484375 C-30.93148419 15.22403017 -30.89218342 13.25715077 -30.55078125 8.58203125 C-29.87733468 4.88717577 -29.2029197 3.42772264 -26.1171875 1.203125 C-17.60274729 -0.39367448 -8.62858025 0.02376498 0 0 Z " fill="#31C05A" transform="translate(988.1171875,37.796875)"/>
<path d="M0 0 C3.13295475 3.05050858 4.21890818 5.65801221 4.62947559 10.00980186 C4.63152846 10.98862139 4.63358133 11.96744091 4.63569641 12.97592163 C4.64278122 14.1054425 4.64986603 15.23496338 4.65716553 16.39871216 C4.65468811 17.62887054 4.65221069 18.85902893 4.6496582 20.12646484 C4.65476913 21.42958618 4.65988007 22.73270752 4.66514587 24.07531738 C4.67852474 27.6461911 4.67911495 31.21695887 4.67658257 34.78785276 C4.67551041 37.77903355 4.68040337 40.77019312 4.685188 43.76136935 C4.69628297 50.83132624 4.69672304 57.90123002 4.69067383 64.97119141 C4.68465656 72.23115718 4.69688756 79.49092805 4.7182439 86.75086057 C4.73595847 93.00593361 4.74184518 99.26094521 4.73860615 105.51604235 C4.73680607 109.24165872 4.73929871 112.96713659 4.75332069 116.69272995 C4.76605291 120.2075058 4.76381257 123.72198321 4.75090981 127.23675537 C4.74747842 129.11484584 4.75861253 130.99294607 4.77047729 132.8710022 C4.6452089 153.54667154 4.6452089 153.54667154 -0.00611401 160.32526207 C-4.97255374 164.67217383 -10.78616512 164.56958423 -17.0625 164.6875 C-18.18881836 164.74357422 -18.18881836 164.74357422 -19.33789062 164.80078125 C-23.53167085 164.86717355 -25.15192424 164.67430038 -28.59765625 162.0390625 C-31.72864883 157.82820929 -31.75109212 154.465143 -31.76544189 149.29116821 C-31.77115204 148.05745987 -31.77686218 146.82375153 -31.78274536 145.55265808 C-31.78399062 144.18826304 -31.78511574 142.82386789 -31.78613281 141.45947266 C-31.79076291 140.02035902 -31.79578783 138.58124661 -31.80117798 137.14213562 C-31.81428406 133.23506989 -31.82074324 129.32802133 -31.82518864 125.42093706 C-31.82812178 122.97924475 -31.83222701 120.53755711 -31.83669281 118.09586716 C-31.85036197 110.45417701 -31.86003192 102.81249756 -31.8638947 95.17079604 C-31.86837655 86.35332966 -31.88593269 77.53601822 -31.9148953 68.71859896 C-31.93651485 61.89979409 -31.9465991 55.08103281 -31.94793582 48.26219404 C-31.9489835 44.19087538 -31.95488351 40.11970249 -31.97275543 36.04841995 C-31.98924129 32.21853075 -31.99138924 28.38889681 -31.98261642 24.55898476 C-31.98184637 23.15534468 -31.98618471 21.75169085 -31.99607468 20.3480854 C-32.00880765 18.42803181 -32.00112076 16.5078755 -31.99249268 14.58779907 C-31.99395924 13.51449656 -31.9954258 12.44119404 -31.9969368 11.3353672 C-31.55691997 7.75918857 -30.49384358 5.38072883 -28.625 2.3125 C-21.04228268 -2.74264488 -8.20703068 -3.82051428 0 0 Z " fill="#1DB95D" transform="translate(245.625,60.6875)"/>
<path d="M0 0 C4.49001454 3.49223353 5.52056523 6.16423946 6.25 11.75 C6.33811088 14.03171684 6.37625702 16.31565798 6.37698364 18.59907532 C6.37854363 19.26347081 6.38010362 19.9278663 6.38171089 20.61239499 C6.38568035 22.82535986 6.38254698 25.03825539 6.37939453 27.2512207 C6.38075041 28.84339437 6.38253139 30.43556772 6.38470459 32.02774048 C6.38925782 36.34397536 6.38749773 40.6601863 6.3843255 44.97642159 C6.3817897 49.50057301 6.38414297 54.0247224 6.38571167 58.5488739 C6.38753035 66.14904141 6.38513552 73.7491992 6.38037109 81.34936523 C6.37493493 90.1220863 6.37668765 98.89478411 6.3821975 107.66750461 C6.38674421 115.20995638 6.38737137 122.75240117 6.38475883 130.29485387 C6.38320388 134.79486833 6.38298071 139.29487188 6.38629532 143.79488564 C6.38919647 148.02938671 6.38715726 152.26385799 6.38140106 156.49835587 C6.38008521 158.04747277 6.38044748 159.59659221 6.38266373 161.14570808 C6.41334666 184.78273856 6.41334666 184.78273856 0.25 191.75 C-7.06252068 197.41025091 -14.67933558 196.99388435 -23.53955078 197.04516602 C-24.92637326 197.0566931 -26.31315112 197.07715702 -27.69970703 197.10668945 C-29.71354319 197.14953194 -31.7279365 197.16295791 -33.7421875 197.17578125 C-35.54212158 197.19765503 -35.54212158 197.19765503 -37.37841797 197.2199707 C-41.44949259 196.65249651 -43.56861907 195.30845926 -46.75 192.75 C-48.98465229 189.39802157 -49.02108649 188.17208754 -49 184.25 C-49.00515625 183.2909375 -49.0103125 182.331875 -49.015625 181.34375 C-48.75 178.75 -48.75 178.75 -46.75 175.75 C-44.87402344 175.36523438 -44.87402344 175.36523438 -42.609375 175.34375 C-41.37380859 175.31087891 -41.37380859 175.31087891 -40.11328125 175.27734375 C-39.25089844 175.26832031 -38.38851562 175.25929687 -37.5 175.25 C-29.15723348 175.2637056 -29.15723348 175.2637056 -21.75 171.75 C-19.95635335 167.4907112 -19.49560257 163.82413029 -19.47825623 159.22914124 C-19.4685379 157.93522964 -19.45881958 156.64131805 -19.44880676 155.30819702 C-19.44803665 153.88653573 -19.4474476 152.46487433 -19.44702148 151.04321289 C-19.43935474 149.53645881 -19.43080731 148.02970899 -19.42144775 146.52296448 C-19.40320554 143.28510638 -19.3911437 140.04730561 -19.38390923 136.80940437 C-19.37239781 131.68638505 -19.34692984 126.56349234 -19.31959534 121.4405365 C-19.27798056 113.3352981 -19.24555183 105.23005355 -19.21712118 97.12475914 C-19.16613649 82.61501578 -19.10385293 68.10532622 -19.03178078 53.59567255 C-19.00692015 48.50629576 -18.98746062 43.41693538 -18.97239864 38.32752049 C-18.96216619 35.15760377 -18.94801966 31.98771269 -18.93292236 28.81781578 C-18.92678741 27.35171745 -18.92231663 25.88561103 -18.91966438 24.41950226 C-18.91582705 22.41226881 -18.90543831 20.40505112 -18.89476013 18.39784241 C-18.89090522 17.27643891 -18.8870503 16.15503542 -18.88307858 14.99965 C-18.50054518 5.65855469 -18.50054518 5.65855469 -15.375 1.875 C-10.71153635 -1.90018486 -5.50380758 -2.50173072 0 0 Z " fill="#18B65A" transform="translate(834.75,37.25)"/>
<path d="M0 0 C2.22465778 -0.00975299 4.44840695 -0.04092162 6.67285156 -0.07226562 C27.37053645 -0.22645251 27.37053645 -0.22645251 34.91503906 5.80273438 C37.63825768 8.67315399 38.19203138 9.37029607 38.35253906 13.30273438 C38.22753906 16.24023438 38.22753906 16.24023438 37.22753906 17.24023438 C36.87768864 21.43843944 37.15980281 24.33568371 38.72753906 28.24023438 C42.29581446 38.21441371 41.03974623 50.48592292 37.22753906 60.24023438 C34.0408305 64.92657049 31.02729698 65.75197043 25.77194214 66.84091187 C21.46826901 67.51633691 17.20529179 67.54538802 12.85644531 67.54101562 C11.89407455 67.54530075 10.9317038 67.54958588 9.94017029 67.55400085 C7.91739687 67.55970966 5.89460294 67.56027007 3.87182617 67.5559082 C0.80188532 67.55274658 -2.26709181 67.57625704 -5.33691406 67.6015625 C-7.3141264 67.60383591 -9.2913413 67.6045388 -11.26855469 67.60351562 C-12.17302841 67.61272537 -13.07750214 67.62193512 -14.00938416 67.63142395 C-21.23302314 67.57977314 -28.97588527 66.96860088 -34.33496094 61.74023438 C-36.26973736 58.37540582 -36.89903011 55.78785208 -36.93359375 51.97167969 C-36.94320129 51.11358704 -36.95280884 50.25549438 -36.96270752 49.37139893 C-36.9669574 48.44639587 -36.97120728 47.52139282 -36.97558594 46.56835938 C-36.98128601 45.61257996 -36.98698608 44.65680054 -36.99285889 43.67205811 C-37.00230726 41.64791978 -37.00884222 39.62376608 -37.01269531 37.59960938 C-37.02238002 34.51599953 -37.05339648 31.4330622 -37.08496094 28.34960938 C-37.09149337 26.38086332 -37.0967429 24.41211251 -37.10058594 22.44335938 C-37.11293274 21.52645325 -37.12527954 20.60954712 -37.13800049 19.66485596 C-37.11877292 14.08640799 -36.4864487 10.15346061 -33.77246094 5.24023438 C-24.82600604 -1.99306959 -10.96811222 0.02897784 0 0 Z " fill="#3AC755" transform="translate(910.7724609375,35.759765625)"/>
<path d="M0 0 C1.02349548 -0.00426498 2.04699097 -0.00852997 3.10150146 -0.01292419 C4.79247452 -0.01224442 4.79247452 -0.01224442 6.51760864 -0.0115509 C8.29331238 -0.01658882 8.29331238 -0.01658882 10.10488892 -0.02172852 C13.35701141 -0.02961621 16.60909564 -0.03290701 19.86122656 -0.0335443 C22.57493116 -0.03449298 25.28862961 -0.03817086 28.00233185 -0.0417164 C34.40488821 -0.0498645 40.80743051 -0.05230034 47.20999146 -0.05158997 C53.81626072 -0.0509893 60.4224483 -0.06153797 67.02869689 -0.07733363 C72.69839579 -0.09040731 78.36806798 -0.09577392 84.03778183 -0.09513456 C87.42492487 -0.09487948 90.81199535 -0.09773554 94.19912338 -0.10831261 C97.97722962 -0.11807827 101.7551242 -0.11524785 105.53323364 -0.10920715 C106.65650055 -0.11482666 107.77976746 -0.12044617 108.93707275 -0.12623596 C109.96620789 -0.12204147 110.99534302 -0.11784698 112.05566406 -0.11352539 C112.94904921 -0.11407016 113.84243435 -0.11461493 114.76289177 -0.1151762 C118.46713611 0.27026481 120.50660662 1.3697521 122.90481567 4.19621277 C124.63807251 8.26936633 124.97591719 11.77496826 124.15481567 16.13371277 C121.91154353 20.49101505 118.74403601 22.64369647 114.15481567 24.13371277 C111.72910404 24.38818836 111.72910404 24.38818836 109.15214539 24.39440918 C107.67815781 24.40503639 107.67815781 24.40503639 106.1743927 24.4158783 C105.10775894 24.41340088 104.04112518 24.41092346 102.94216919 24.40837097 C101.80990906 24.4134819 100.67764893 24.41859283 99.51107788 24.42385864 C95.76857212 24.43775783 92.02625043 24.43679765 88.28372192 24.43449402 C85.68207226 24.43838063 83.08042323 24.44271522 80.47877502 24.44747925 C75.02563145 24.45494208 69.57255923 24.45478793 64.11941528 24.4493866 C57.8237865 24.4433465 51.52838119 24.45566097 45.23279053 24.47695667 C39.16672913 24.49671842 33.10077199 24.49974389 27.03468132 24.49622154 C24.45787977 24.4967351 21.88107467 24.50197922 19.30429268 24.51203346 C15.7016387 24.52436563 12.09950235 24.51762503 8.49685669 24.50602722 C7.43224716 24.51367096 6.36763763 24.5213147 5.27076721 24.52919006 C-1.10979583 24.4837753 -5.95787323 24.02714105 -10.68893433 19.28605652 C-12.90853608 15.15429785 -12.58435462 10.66953049 -11.84518433 6.13371277 C-8.27365063 1.43432633 -5.73263774 0.01076257 0 0 Z " fill="#63C149" transform="translate(474.8451843261719,171.8662872314453)"/>
<path d="M0 0 C1.24007812 0.00515625 2.48015625 0.0103125 3.7578125 0.015625 C5.61019531 0.00789063 5.61019531 0.00789063 7.5 0 C10.61944337 0.24494474 12.33505385 0.51788718 14.8828125 2.265625 C16.01907404 4.53814808 16.0150413 5.80175387 16.02807617 8.32543945 C16.03445602 9.16424149 16.04083588 10.00304352 16.04740906 10.86726379 C16.04852188 11.7786058 16.0496347 12.68994781 16.05078125 13.62890625 C16.05577385 15.04335274 16.05577385 15.04335274 16.06086731 16.4863739 C16.0659405 18.49131787 16.06827552 20.49627032 16.06811523 22.5012207 C16.07027646 25.52765504 16.08835697 28.55370958 16.10742188 31.58007812 C16.1358941 41.66894374 15.97029302 51.35334498 13.8828125 61.265625 C14.5428125 60.935625 15.2028125 60.605625 15.8828125 60.265625 C21.71310108 59.68188426 25.0568919 61.0864637 29.6953125 64.390625 C30.91820821 65.22421728 32.14217373 66.05624222 33.3671875 66.88671875 C33.96208984 67.29519043 34.55699219 67.70366211 35.16992188 68.12451172 C37.5253005 69.69364509 39.97826365 71.06817991 42.4453125 72.453125 C46.62452129 74.97030521 49.41126021 77.00432795 51.8828125 81.265625 C52.19914181 84.95613361 51.69669099 88.11879622 49.5078125 91.203125 C45.7271492 93.67509716 42.26336471 93.68282045 37.8828125 93.265625 C27.65417656 89.63782159 18.19852028 82.14107555 10.8828125 74.265625 C10.0703125 71.953125 10.0703125 71.953125 9.8828125 70.265625 C9.2228125 70.265625 8.5628125 70.265625 7.8828125 70.265625 C7.6353125 70.9875 7.3878125 71.709375 7.1328125 72.453125 C3.23409416 81.22524126 -5.85833781 87.01095463 -14.4609375 90.69921875 C-21.71042629 93.14861286 -28.45393078 94.76002866 -36.1171875 94.265625 C-38.79150239 92.45399233 -39.07639109 91.38801423 -40.1171875 88.265625 C-40.23458872 86.581054 -40.29225295 84.89173623 -40.3046875 83.203125 C-40.31886719 82.32527344 -40.33304688 81.44742188 -40.34765625 80.54296875 C-40.1171875 78.265625 -40.1171875 78.265625 -38.1171875 76.265625 C-36.31868273 75.79218233 -34.50233841 75.38536953 -32.6796875 75.015625 C-24.33433916 72.99190307 -16.7222958 70.1227123 -11.5546875 62.953125 C-6.05422044 53.51697893 -6.01404796 41.80582617 -5.87109375 31.14453125 C-5.83821397 29.45116557 -5.80500153 27.75780631 -5.77148438 26.06445312 C-5.72377966 23.42882919 -5.67917409 20.79324166 -5.64038086 18.1574707 C-5.60085134 15.59041882 -5.54933767 13.02383008 -5.49609375 10.45703125 C-5.4876796 9.6643837 -5.47926544 8.87173615 -5.47059631 8.05506897 C-5.29763046 0.45142716 -5.29763046 0.45142716 0 0 Z " fill="#11A46E" transform="translate(995.1171875,97.734375)"/>
<path d="M0 0 C3.31038352 1.35453551 5.47976599 3.47976599 8 6 C9.23269593 13.45351029 7.06676979 19.29144108 4 26 C9.61 26 15.22 26 21 26 C21 33.92 21 41.84 21 50 C12.42 50.33 3.84 50.66 -5 51 C-6.2684375 54.155625 -6.2684375 54.155625 -7.5625 57.375 C-10.71862116 64.86925779 -14.34546045 72.87915898 -21.25 77.625 C-26.33205855 79.48842147 -30.65880569 80.02801229 -36 79 C-39.31312242 77.34582921 -42.15422925 75.36093574 -45 73 C-44.62924385 66.72804171 -41.42812366 62.27983731 -38.25 57.0625 C-32.30772218 46.96454568 -28.62909744 37.52379117 -25.77734375 26.13671875 C-25.45721313 24.87432373 -25.45721313 24.87432373 -25.13061523 23.58642578 C-24.72423063 21.95994339 -24.33319179 20.32951131 -23.96118164 18.69482422 C-22.32972222 11.97806345 -19.32102382 6.81336221 -14.9375 1.5 C-10.12907415 -0.95536639 -5.27901653 -0.72863286 0 0 Z " fill="#28C054" transform="translate(329,41)"/>
<path d="M0 0 C0.66 0 1.32 0 2 0 C2.22204102 0.95197266 2.44408203 1.90394531 2.67285156 2.88476562 C4.96884571 12.50896892 7.78421285 21.86231014 10.97497559 31.22503662 C11.76985279 33.55827478 12.55625949 35.89423123 13.34082031 38.23095703 C15.72271447 45.31636946 18.13202765 52.39205573 20.5625 59.4609375 C20.93665039 60.55857422 21.31080078 61.65621094 21.69628906 62.78710938 C22.37751175 64.78342648 23.06644789 66.77713538 23.76464844 68.76757812 C25.31862017 73.32745641 26.41980121 77.10770124 26 82 C21.8176898 82.19010501 18.05544477 81.88780308 13.9375 81.125 C5.25595378 79.63488386 -3.49337214 78.7902741 -12.25 77.875 C-13.97789928 77.69173304 -15.70576417 77.50814162 -17.43359375 77.32421875 C-21.62200938 76.87907585 -25.81086393 76.43830894 -30 76 C-28.16089344 61.32288309 -28.16089344 61.32288309 -25.5625 54.75 C-24.07897013 50.93653763 -22.733877 47.1571204 -21.60546875 43.2265625 C-20.02134373 37.85602936 -17.97268692 32.75976338 -15.75 27.625 C-15.35594971 26.71105469 -14.96189941 25.79710938 -14.5559082 24.85546875 C-10.67096285 16.00071353 -6.43929193 7.31440868 0 0 Z " fill="#F9FCFA" transform="translate(119,60)"/>
<path d="M0 0 C0.33 0 0.66 0 1 0 C1.09283046 8.37126603 1.16383051 16.74231569 1.20724869 25.1139698 C1.2280912 29.00162103 1.25634681 32.88891915 1.30175781 36.77636719 C1.34533619 40.53058195 1.36916219 44.28445786 1.37950897 48.0389061 C1.38687898 49.46861986 1.40127114 50.89831583 1.42292023 52.32788467 C1.4521076 54.33575481 1.4536352 56.34396857 1.45410156 58.35205078 C1.46298401 59.49344513 1.47186646 60.63483948 1.48101807 61.81082153 C0.88917869 65.7347519 -0.55479219 67.91289934 -3 71 C-6.71453232 72.85726616 -10.95579425 72.58501089 -15 72 C-17.82424288 69.80977082 -19.41508603 68.16982793 -21 65 C-21.09144783 62.9983125 -21.11751697 60.99351744 -21.11352539 58.98974609 C-21.11344986 57.72858978 -21.11337433 56.46743347 -21.11329651 55.1680603 C-21.10818949 53.78651897 -21.10297349 52.40497804 -21.09765625 51.0234375 C-21.09579144 49.6138209 -21.09436783 48.20420366 -21.09336853 46.79458618 C-21.08954833 43.08246068 -21.07972228 39.37037422 -21.06866455 35.65826416 C-21.05843975 31.87113981 -21.05386862 28.08400917 -21.04882812 24.296875 C-21.03809957 16.86456346 -21.02050679 9.43229217 -21 2 C-14.07 2 -7.14 2 0 2 C0 1.34 0 0.68 0 0 Z " fill="#177BD2" transform="translate(803,123)"/>
<path d="M0 0 C1.8125 2 1.8125 2 2.375 5.875 C2.07733478 10.0423131 0.9760107 12.15284037 -2.1875 15 C-18.44889156 25.8409277 -46.73921643 24.1805382 -65.125 20.9375 C-74.38278596 18.82114806 -84.73335765 15.15511715 -90.1875 7 C-90.5625 4.3125 -90.5625 4.3125 -90.1875 2 C-88.1875 0 -88.1875 0 -86.19140625 -0.08203125 C-81.69420632 0.41445962 -77.54422806 1.14122743 -73.23046875 2.51953125 C-66.4654698 4.39658106 -59.92560582 4.53247555 -52.9375 4.5 C-51.62934326 4.49935547 -50.32118652 4.49871094 -48.97338867 4.49804688 C-39.61974044 4.40061526 -30.84203626 3.19888303 -21.80957031 0.77929688 C-14.60176009 -1.14242085 -7.24966845 -2.27440579 0 0 Z " fill="#EFC930" transform="translate(165.1875,150)"/>
<path d="M0 0 C2.82424288 2.19022918 4.41508603 3.83017207 6 7 C6.09587524 8.77658359 6.12795655 10.55676936 6.12939453 12.3359375 C6.13254669 13.45049316 6.13569885 14.56504883 6.13894653 15.71337891 C6.1369223 16.92171387 6.13489807 18.13004883 6.1328125 19.375 C6.13424759 21.22810791 6.13424759 21.22810791 6.13571167 23.11865234 C6.13656804 26.40586084 6.13253344 29.69302236 6.12695312 32.98022461 C6.12500203 34.99789941 6.12694592 37.01553072 6.13037109 39.03320312 C6.13652992 42.89715613 6.13580484 46.76104435 6.1328125 50.625 C6.13483673 51.83333496 6.13686096 53.04166992 6.13894653 54.28662109 C6.13579437 55.40117676 6.13264221 56.51573242 6.12939453 57.6640625 C6.12859894 58.64842285 6.12780334 59.6327832 6.12698364 60.64697266 C6 63 6 63 5 65 C-1.6 65 -8.2 65 -15 65 C-15.1130823 57.2634308 -15.20476238 49.52717043 -15.25906086 41.78997517 C-15.28512544 38.1969914 -15.32046329 34.60460364 -15.37719727 31.01196289 C-15.43163335 27.54301814 -15.46144416 24.07464561 -15.47438622 20.60530663 C-15.48808449 18.64148949 -15.52710018 16.67790175 -15.56648254 14.71443176 C-15.56960689 4.77964242 -15.56960689 4.77964242 -12.62573242 1.69067383 C-8.42622112 -1.01333508 -4.8201049 -1.01309265 0 0 Z " fill="#F6C824" transform="translate(798,60)"/>
<path d="M0 0 C7.88431428 -0.04635853 15.76857152 -0.08188702 23.65298843 -0.10362434 C27.31411812 -0.11405763 30.97515449 -0.12820844 34.63623047 -0.15087891 C38.16995917 -0.17262364 41.70359816 -0.18457205 45.23738861 -0.18975449 C47.24042217 -0.19524344 49.24341969 -0.21085381 51.24639893 -0.22659302 C52.46736267 -0.22674408 53.68832642 -0.22689514 54.94628906 -0.22705078 C56.55845306 -0.23371262 56.55845306 -0.23371262 58.20318604 -0.24050903 C62.15733184 0.09952352 64.19158092 1.04722037 66.75 4.0625 C68.48325684 8.13565356 68.82110152 11.64125549 68 16 C66.32288896 19.25759841 64.0990875 21.41953637 60.83015442 23.14596558 C57.16607125 24.25164841 53.69377551 24.263434 49.9050293 24.22705078 C49.10450638 24.22734283 48.30398346 24.22763489 47.47920227 24.22793579 C44.84409592 24.22654705 42.20927546 24.21100739 39.57421875 24.1953125 C37.74290623 24.19158075 35.91159172 24.18873454 34.08027649 24.18673706 C29.26832534 24.17911337 24.45649559 24.15947573 19.64459229 24.1373291 C14.73117718 24.11684344 9.8177424 24.10772953 4.90429688 24.09765625 C-4.73052198 24.07622866 -14.36525088 24.04210796 -24 24 C-24 23.67 -24 23.34 -24 23 C-22.73724243 22.96241577 -22.73724243 22.96241577 -21.44897461 22.92407227 C-18.29733856 22.82839721 -15.14583774 22.72919924 -11.99438477 22.62768555 C-10.6357042 22.58462706 -9.27697959 22.54293435 -7.91821289 22.50268555 C-5.95447697 22.44427107 -3.99090636 22.38038197 -2.02734375 22.31640625 C-0.25991821 22.26141968 -0.25991821 22.26141968 1.54321289 22.20532227 C5.10734091 21.99362429 8.50251714 21.73305354 12 21 C14.03120707 17.95318939 14.24659875 17.39881676 14.1953125 13.98828125 C14.18564453 12.85229492 14.18564453 12.85229492 14.17578125 11.69335938 C14.15902344 10.90767578 14.14226563 10.12199219 14.125 9.3125 C14.11597656 8.51521484 14.10695313 7.71792969 14.09765625 6.89648438 C14.07411585 4.930861 14.03824547 2.96539225 14 1 C12.02 1.66 10.04 2.32 8 3 C8 2.34 8 1.68 8 1 C5.36 1 2.72 1 0 1 C0 0.67 0 0.34 0 0 Z " fill="#F4972E" transform="translate(531,172)"/>
<path d="M0 0 C1.48050591 0.00137466 1.48050591 0.00137466 2.99092102 0.0027771 C5.07122627 0.00880622 7.15152312 0.02453145 9.23168945 0.04931641 C12.42496488 0.08592814 15.61708305 0.09033494 18.81054688 0.08984375 C20.83204133 0.09967116 22.8535279 0.11132652 24.875 0.125 C26.31246834 0.12833847 26.31246834 0.12833847 27.77897644 0.13174438 C28.66362076 0.14450409 29.54826508 0.15726379 30.4597168 0.17041016 C31.62956367 0.18184555 31.62956367 0.18184555 32.82304382 0.19351196 C34.73828125 0.4609375 34.73828125 0.4609375 36.73828125 2.4609375 C36.99707031 4.29272461 36.99707031 4.29272461 37.00390625 6.48828125 C37.00777344 7.67647461 37.00777344 7.67647461 37.01171875 8.88867188 C37.00398437 9.71689453 36.99625 10.54511719 36.98828125 11.3984375 C36.99988281 12.6349707 36.99988281 12.6349707 37.01171875 13.89648438 C37.00914062 14.68990234 37.0065625 15.48332031 37.00390625 16.30078125 C37.00165039 17.02644287 36.99939453 17.75210449 36.99707031 18.49975586 C36.73828125 20.4609375 36.73828125 20.4609375 34.73828125 23.4609375 C32.01577272 24.36844034 30.40640032 24.59152469 27.60571289 24.60620117 C26.77797867 24.61258102 25.95024445 24.61896088 25.09742737 24.62553406 C24.20676071 24.62664688 23.31609406 24.6277597 22.3984375 24.62890625 C21.02068398 24.63389885 21.02068398 24.63389885 19.61509705 24.63899231 C17.67252096 24.64405478 15.72993619 24.64640084 13.78735352 24.64624023 C10.81577227 24.64842647 7.84456242 24.66658866 4.87304688 24.68554688 C2.98567835 24.68848098 1.09830807 24.69046566 -0.7890625 24.69140625 C-1.67770493 24.69859177 -2.56634735 24.70577728 -3.48191833 24.71318054 C-4.31280472 24.71010391 -5.1436911 24.70702728 -5.99975586 24.70385742 C-6.72795029 24.70528244 -7.45614471 24.70670746 -8.20640564 24.70817566 C-10.60524197 24.41961433 -12.20824254 23.71941402 -14.26171875 22.4609375 C-15.73255674 19.04479766 -15.53561434 15.13180513 -15.63671875 11.4609375 C-15.68570313 10.2440625 -15.7346875 9.0271875 -15.78515625 7.7734375 C-15.26171875 4.4609375 -15.26171875 4.4609375 -13.37036133 2.28271484 C-8.91161526 -0.33027213 -5.07898044 -0.07665109 0 0 Z " fill="#F5FBF7" transform="translate(708.26171875,59.5390625)"/>
<path d="M0 0 C2.3594043 2.3594043 2.79852375 4.09157186 3.8125 7.25 C6.41289488 14.49328173 9.40776435 18.36906935 16.3125 21.875 C17.8685583 22.59737451 19.42904921 23.31061189 21 24 C18 26 18 26 15.66015625 27.2265625 C8.47639327 31.09391159 5.80426355 34.45084059 3.328125 42.06640625 C2.84026153 43.69811178 2.41305702 45.34777193 2 47 C0 46 0 46 -0.67578125 44.14453125 C-0.88589844 43.37496094 -1.09601563 42.60539062 -1.3125 41.8125 C-3.24987552 35.77019022 -6.20032028 31.76869671 -11.8125 28.6875 C-15.85687795 26.83093793 -19.580777 26.31565879 -24 26 C-24 25.34 -24 24.68 -24 24 C-23.29875 23.86464844 -22.5975 23.72929688 -21.875 23.58984375 C-14.77383729 21.97857449 -9.58521077 19.81802687 -5 14 C-2.63229369 9.52613633 -1.16281329 4.9109105 0 0 Z " fill="#DDD944" transform="translate(235,10)"/>
<path d="M0 0 C4.18087152 -0.07441989 8.3613873 -0.12872818 12.54272461 -0.16479492 C13.96369141 -0.1798376 15.38461213 -0.20027704 16.80541992 -0.22631836 C18.85346886 -0.26290347 20.9009015 -0.27977097 22.94921875 -0.29296875 C24.79519653 -0.31653442 24.79519653 -0.31653442 26.6784668 -0.34057617 C30.27920391 0.02862841 32.13533543 0.83081837 35 3 C36.72394188 6.44788376 36.36358102 10.22279717 36 14 C34.62050896 16.98889725 33.59500984 17.72696094 30.625 19.08984375 C25.44165881 20.39126454 20.445053 20.21017326 15.125 20.125 C14.05507813 20.11597656 12.98515625 20.10695313 11.8828125 20.09765625 C9.25497561 20.07419342 6.62760594 20.04136459 4 20 C4.0714624 19.32598145 4.1429248 18.65196289 4.21655273 17.95751953 C4.30880127 17.06661621 4.4010498 16.17571289 4.49609375 15.2578125 C4.58818115 14.37754395 4.68026855 13.49727539 4.77514648 12.59033203 C5.05455773 9.37149024 5.07018457 6.22849001 5 3 C4.34 3 3.68 3 3 3 C3 2.34 3 1.68 3 1 C2.01 0.67 1.02 0.34 0 0 Z " fill="#04B993" transform="translate(1008,38)"/>
<path d="M0 0 C2.14576637 -0.02685938 4.29162645 -0.04633088 6.4375 -0.0625 C7.63246094 -0.07410156 8.82742188 -0.08570313 10.05859375 -0.09765625 C13 0 13 0 14 1 C14.11360293 4.07911659 14.16419105 7.13495466 14.16796875 10.21484375 C14.17129715 11.14091934 14.17462555 12.06699493 14.17805481 13.02113342 C14.18312808 14.98405458 14.18546301 16.9469844 14.18530273 18.90991211 C14.18748817 21.92120511 14.20563674 24.93213134 14.22460938 27.94335938 C14.22754336 29.84635291 14.22952812 31.74934819 14.23046875 33.65234375 C14.23765427 34.55758286 14.24483978 35.46282196 14.25224304 36.39549255 C14.24916641 37.23298538 14.24608978 38.07047821 14.24291992 38.93334961 C14.24434494 39.67201767 14.24576996 40.41068573 14.24723816 41.17173767 C14 43 14 43 12 45 C9.31160615 45.26991906 6.70858064 45.08737357 4 45 C3.97812622 43.20598755 3.97812622 43.20598755 3.95581055 41.37573242 C3.89787414 36.94183325 3.82064126 32.50844442 3.73754883 28.07495117 C3.7042775 26.15543902 3.67625246 24.23582852 3.65356445 22.31616211 C3.62005879 19.55800428 3.56774597 16.80074957 3.51171875 14.04296875 C3.50532883 13.18350143 3.4989389 12.32403412 3.49235535 11.43852234 C3.47256119 10.63791885 3.45276703 9.83731537 3.43237305 9.01245117 C3.42126999 8.3085173 3.41016693 7.60458344 3.39872742 6.87931824 C2.88951374 4.47924612 1.76183868 3.64371721 0 2 C0 1.34 0 0.68 0 0 Z " fill="#F0FAF6" transform="translate(742,148)"/>
<path d="M0 0 C10.23 0 20.46 0 31 0 C31 2.97 31 5.94 31 9 C29 11 29 11 26.21850586 11.24291992 C25.06229736 11.23881104 23.90608887 11.23470215 22.71484375 11.23046875 C21.46251953 11.22853516 20.21019531 11.22660156 18.91992188 11.22460938 C16.94862305 11.20624023 16.94862305 11.20624023 14.9375 11.1875 C13.61943359 11.18685547 12.30136719 11.18621094 10.94335938 11.18554688 C1.14009123 11.14009123 1.14009123 11.14009123 0 10 C0 6.7 0 3.4 0 0 Z " fill="#FAFDFB" transform="translate(897,78)"/>
<path d="M0 0 C4.1117256 -0.02465746 8.22342278 -0.04283959 12.33520508 -0.05493164 C13.73495228 -0.0599708 15.1346942 -0.06680216 16.53442383 -0.07543945 C18.54245777 -0.0875232 20.55052957 -0.09269807 22.55859375 -0.09765625 C24.37315063 -0.10551147 24.37315063 -0.10551147 26.22436523 -0.11352539 C29 0 29 0 30 1 C30.07205511 2.68608966 30.08386068 4.37500659 30.0625 6.0625 C30.05347656 6.98160156 30.04445313 7.90070312 30.03515625 8.84765625 C30.02355469 9.55792969 30.01195312 10.26820312 30 11 C25.8882744 11.02465746 21.77657722 11.04283959 17.66479492 11.05493164 C16.26504772 11.0599708 14.8653058 11.06680216 13.46557617 11.07543945 C11.45754223 11.0875232 9.44947043 11.09269807 7.44140625 11.09765625 C6.23170166 11.10289307 5.02199707 11.10812988 3.77563477 11.11352539 C1 11 1 11 0 10 C-0.07205511 8.31391034 -0.08386068 6.62499341 -0.0625 4.9375 C-0.05347656 4.01839844 -0.04445313 3.09929688 -0.03515625 2.15234375 C-0.02355469 1.44207031 -0.01195312 0.73179688 0 0 Z " fill="#F6FCF8" transform="translate(897,51)"/>
<path d="M0 0 C0.33 0 0.66 0 1 0 C1 5.61 1 11.22 1 17 C-5.6 17 -12.2 17 -19 17 C-19 12.71 -19 8.42 -19 4 C-17.47375 4.185625 -15.9475 4.37125 -14.375 4.5625 C-9.62359346 5.04033267 -5.36955502 5.18477751 -1 3 C-0.67 2.01 -0.34 1.02 0 0 Z " fill="#CBA53C" transform="translate(802,108)"/>
<path d="M0 0 C0.33 0 0.66 0 1 0 C1 21.45 1 42.9 1 65 C0.67 65 0.34 65 0 65 C0 44.87 0 24.74 0 4 C-2.64 4.33 -5.28 4.66 -8 5 C-11.63 5 -15.26 5 -19 5 C-19.33 24.8 -19.66 44.6 -20 65 C-20.33 65 -20.66 65 -21 65 C-21 44.21 -21 23.42 -21 2 C-14.07 2 -7.14 2 0 2 C0 1.34 0 0.68 0 0 Z " fill="#75B2E0" transform="translate(803,123)"/>
<path d="M0 0 C25.74 0 51.48 0 78 0 C78 2.31 78 4.62 78 7 C77.67 7 77.34 7 77 7 C77 5.02 77 3.04 77 1 C76.20631012 1.06770096 75.41262024 1.13540192 74.59487915 1.20515442 C66.90152663 1.83331256 59.23966895 2.2190257 51.5234375 2.38671875 C50.39152985 2.41224319 49.25962219 2.43776764 48.09341431 2.46406555 C45.72215102 2.51562898 43.35084142 2.56510241 40.97949219 2.61254883 C37.37662737 2.68746616 33.77436624 2.77819586 30.171875 2.86914062 C27.85158269 2.9176423 25.53127042 2.96520042 23.2109375 3.01171875 C21.61830582 3.05530769 21.61830582 3.05530769 19.99349976 3.09977722 C13.09946841 3.21449025 6.73187455 2.48835728 0 1 C0 0.67 0 0.34 0 0 Z " fill="#CA6B73" transform="translate(976,198)"/>
<path d="M0 0 C0 7.92 0 15.84 0 24 C-2.64 24 -5.28 24 -8 24 C-7.67 23.34 -7.34 22.68 -7 22 C-6.91599471 20.40552536 -6.89272533 18.80759455 -6.90234375 17.2109375 C-6.90556641 16.26992187 -6.90878906 15.32890625 -6.91210938 14.359375 C-6.92048828 13.37453125 -6.92886719 12.3896875 -6.9375 11.375 C-6.94201172 10.38242188 -6.94652344 9.38984375 -6.95117188 8.3671875 C-6.96297855 5.9113984 -6.979446 3.45572896 -7 1 C-4.50935112 0.31292445 -2.62113708 0 0 0 Z " fill="#03B65A" transform="translate(350,67)"/>
<path d="M0 0 C12.21 0 24.42 0 37 0 C37 0.33 37 0.66 37 1 C36.24380371 1.0093457 35.48760742 1.01869141 34.70849609 1.02832031 C31.26334866 1.082192 27.81953438 1.16580841 24.375 1.25 C23.18519531 1.26417969 21.99539063 1.27835938 20.76953125 1.29296875 C14.10697107 1.47907378 10.42628837 1.92087615 5 6 C1.57889978 7.13649124 -1.91425088 7.87442696 -5.4375 8.625 C-7.26983894 9.03247298 -9.10187734 9.4413001 -10.93359375 9.8515625 C-11.80113281 10.04363281 -12.66867187 10.23570312 -13.5625 10.43359375 C-16.74805082 11.17382591 -19.86444776 12.07184425 -23 13 C-27.456659 14.06959816 -29.87292388 14.06353806 -34 12 C-31.18727213 9.18727213 -29.11143327 9.63061504 -25.1875 9.4375 C-21.02129624 9.22238516 -17.06952433 8.93792846 -13 8 C-13 7.34 -13 6.68 -13 6 C-12.05898438 5.87882813 -11.11796875 5.75765625 -10.1484375 5.6328125 C-8.28058594 5.38144531 -8.28058594 5.38144531 -6.375 5.125 C-5.14523437 4.96257812 -3.91546875 4.80015625 -2.6484375 4.6328125 C0.73961517 4.04516311 3.77698651 3.18011878 7 2 C4.69 1.67 2.38 1.34 0 1 C0 0.67 0 0.34 0 0 Z " fill="#27BB55" transform="translate(405,135)"/>
<path d="M0 0 C-0.99 1.485 -0.99 1.485 -2 3 C-2.639375 3.12375 -3.27875 3.2475 -3.9375 3.375 C-6.1530799 3.84616319 -6.1530799 3.84616319 -7.59375 5.83984375 C-9.68577429 10.54108722 -9.49346575 15.09540224 -9.5625 20.1875 C-9.59685146 22.18115669 -9.63940779 24.17469426 -9.69140625 26.16796875 C-9.70373291 27.04735107 -9.71605957 27.9267334 -9.72875977 28.83276367 C-10 31 -10 31 -12 33 C-12.37004294 35.22658154 -12.37004294 35.22658154 -12.4140625 37.7890625 C-12.45273437 38.73007813 -12.49140625 39.67109375 -12.53125 40.640625 C-12.5621875 41.62546875 -12.593125 42.6103125 -12.625 43.625 C-12.66367187 44.61757812 -12.70234375 45.61015625 -12.7421875 46.6328125 C-12.8366314 49.08835385 -12.92219875 51.5438841 -13 54 C-13.66 54 -14.32 54 -15 54 C-15.33 46.74 -15.66 39.48 -16 32 C-15.01 32 -14.02 32 -13 32 C-12.99589111 31.27409668 -12.99178223 30.54819336 -12.98754883 29.80029297 C-12.9545251 26.49105084 -12.88386974 23.18362816 -12.8125 19.875 C-12.80669922 18.73289062 -12.80089844 17.59078125 -12.79492188 16.4140625 C-12.54626485 6.90983829 -12.54626485 6.90983829 -9.57421875 3.2578125 C-6.08868708 0.20069975 -4.53979894 -0.11946839 0 0 Z " fill="#D5D94F" transform="translate(365,34)"/>
<path d="M0 0 C0.495 0.99 0.495 0.99 1 2 C-11.44830332 6.34243139 -25.66097643 5.18636701 -38.66967773 5.18530273 C-41.71937347 5.18752321 -44.76872575 5.20583715 -47.81835938 5.22460938 C-49.75781127 5.22753787 -51.69726487 5.2295263 -53.63671875 5.23046875 C-54.54806076 5.23765427 -55.45940277 5.24483978 -56.39836121 5.25224304 C-57.23716324 5.24916641 -58.07596527 5.24608978 -58.94018555 5.24291992 C-60.04719063 5.24505745 -60.04719063 5.24505745 -61.17655945 5.24723816 C-63 5 -63 5 -65 3 C-61.63493287 2.24106628 -58.5555846 1.8837833 -55.10888672 1.91821289 C-54.16375214 1.9247438 -53.21861755 1.93127472 -52.24484253 1.93800354 C-51.23334137 1.94943893 -50.22184021 1.96087433 -49.1796875 1.97265625 C-47.01302247 1.98531029 -44.84635572 1.99767067 -42.6796875 2.00976562 C-39.28314749 2.03448821 -35.88669895 2.06238439 -32.49023438 2.09594727 C-29.19921331 2.1264108 -25.90830582 2.14400906 -22.6171875 2.16015625 C-21.11815384 2.18034569 -21.11815384 2.18034569 -19.58883667 2.20094299 C-12.85609926 2.22453961 -6.57878612 1.42212926 0 0 Z " fill="#BA6268" transform="translate(1044,216)"/>
<path d="M0 0 C6.6 0.33 13.2 0.66 20 1 C20 2.32 20 3.64 20 5 C13.4 5 6.8 5 0 5 C0 3.35 0 1.7 0 0 Z " fill="#918E7E" transform="translate(783,120)"/>
<path d="M0 0 C0.33 0 0.66 0 1 0 C1.10957031 1.01320313 1.21914063 2.02640625 1.33203125 3.0703125 C1.49159893 4.42194461 1.65178833 5.77350343 1.8125 7.125 C1.88275391 7.79015625 1.95300781 8.4553125 2.02539062 9.140625 C2.58045143 13.66992115 3.91873384 16.980592 6 21 C5.67 21.66 5.34 22.32 5 23 C4.34 22.67 3.68 22.34 3 22 C3 23.98 3 25.96 3 28 C2.67 28 2.34 28 2 28 C1.67 31.96 1.34 35.92 1 40 C0.67 40 0.34 40 0 40 C0 26.8 0 13.6 0 0 Z " fill="#92CA48" transform="translate(353,92)"/>
<path d="M0 0 C12.21 0 24.42 0 37 0 C37 0.33 37 0.66 37 1 C36.24380371 1.0093457 35.48760742 1.01869141 34.70849609 1.02832031 C31.26334866 1.082192 27.81953438 1.16580841 24.375 1.25 C23.18519531 1.26417969 21.99539063 1.27835938 20.76953125 1.29296875 C14.14207759 1.47809315 10.12271214 1.73107322 5 6 C2.6640625 6.828125 2.6640625 6.828125 0.625 7.25 C-0.57125 7.4975 -1.7675 7.745 -3 8 C-3 7.34 -3 6.68 -3 6 C0.3 4.68 3.6 3.36 7 2 C4.69 1.67 2.38 1.34 0 1 C0 0.67 0 0.34 0 0 Z " fill="#1EB94E" transform="translate(405,135)"/>
<path d="M0 0 C0.99 0.33 1.98 0.66 3 1 C4.33363703 1.14403348 5.67218046 1.24590423 7.01171875 1.31640625 C8.14770508 1.37924805 8.14770508 1.37924805 9.30664062 1.44335938 C10.48516602 1.50233398 10.48516602 1.50233398 11.6875 1.5625 C12.88342773 1.62727539 12.88342773 1.62727539 14.10351562 1.69335938 C16.06881447 1.79927368 18.03438496 1.90012551 20 2 C20 2.99 20 3.98 20 5 C13.73 5 7.46 5 1 5 C0.67 3.35 0.34 1.7 0 0 Z " fill="#B19C56" transform="translate(783,116)"/>
<path d="M0 0 C1.27617188 0.02320312 2.55234375 0.04640625 3.8671875 0.0703125 C5.78917969 0.09738281 5.78917969 0.09738281 7.75 0.125 C9.23113281 0.15980469 9.23113281 0.15980469 10.7421875 0.1953125 C10.7421875 0.5253125 10.7421875 0.8553125 10.7421875 1.1953125 C9.98292969 1.23269531 9.22367188 1.27007812 8.44140625 1.30859375 C7.44753906 1.37433594 6.45367188 1.44007812 5.4296875 1.5078125 C4.44355469 1.56582031 3.45742188 1.62382813 2.44140625 1.68359375 C-0.63624964 2.26705673 -1.39277006 2.74457656 -3.2578125 5.1953125 C-3.67014625 7.51303219 -3.67014625 7.51303219 -3.55078125 10.08203125 C-3.54111328 11.01982422 -3.53144531 11.95761719 -3.52148438 12.92382812 C-3.49634766 13.90029297 -3.47121094 14.87675781 -3.4453125 15.8828125 C-3.43177734 16.87087891 -3.41824219 17.85894531 -3.40429688 18.87695312 C-3.36893453 21.31695481 -3.31958283 23.75585969 -3.2578125 26.1953125 C-3.9178125 26.5253125 -4.5778125 26.8553125 -5.2578125 27.1953125 C-5.31565958 23.07037099 -5.35135657 18.94553306 -5.3828125 14.8203125 C-5.39957031 13.6446875 -5.41632812 12.4690625 -5.43359375 11.2578125 C-5.44003906 10.13632813 -5.44648437 9.01484375 -5.453125 7.859375 C-5.46359863 6.82248535 -5.47407227 5.7855957 -5.48486328 4.71728516 C-5.1222275 0.68929844 -3.9313675 0.23569349 0 0 Z " fill="#3AC355" transform="translate(995.2578125,97.8046875)"/>
<path d="M0 0 C1.5078125 1.25 1.5078125 1.25 3 3 C3.33294087 6.58997116 2.7131888 9.99505215 0.625 12.9375 C-3.1556633 15.40947216 -6.61944779 15.41719545 -11 15 C-20.35082873 11.29834254 -20.35082873 11.29834254 -22 8 C-18.2045988 9.00694318 -15.03312121 9.9834394 -11.5 11.75 C-7.19653076 13.2869533 -5.17558417 12.67023367 -1 11 C0.25949049 9.96593327 0.25949049 9.96593327 0.09765625 7.71484375 C0.08605469 6.79832031 0.07445312 5.88179687 0.0625 4.9375 C0.05347656 4.01839844 0.04445313 3.09929687 0.03515625 2.15234375 C0.02355469 1.44207031 0.01195312 0.73179687 0 0 Z " fill="#6468B2" transform="translate(1044,176)"/>
<path d="M0 0 C0.33 0 0.66 0 1 0 C1 4.62 1 9.24 1 14 C-0.98 14 -2.96 14 -5 14 C-4.55037804 12.03964825 -4.09001752 10.08175691 -3.625 8.125 C-3.36976563 7.03445312 -3.11453125 5.94390625 -2.8515625 4.8203125 C-2 2 -2 2 0 0 Z " fill="#00AD5F" transform="translate(349,77)"/>
<path d="M0 0 C6.6 0 13.2 0 20 0 C20 0.66 20 1.32 20 2 C13.62641289 2.96205088 7.44070471 3.10655578 1 3 C0.67 2.01 0.34 1.02 0 0 Z " fill="#687BB1" transform="translate(783,125)"/>
<path d="M0 0 C1.64574566 -0.02688151 3.29161413 -0.04634123 4.9375 -0.0625 C5.85402344 -0.07410156 6.77054687 -0.08570312 7.71484375 -0.09765625 C10 0 10 0 11 1 C11.08669432 2.4887186 11.10703494 3.981445 11.09765625 5.47265625 C11.09443359 6.37177734 11.09121094 7.27089844 11.08789062 8.19726562 C11.07951172 9.14279297 11.07113281 10.08832031 11.0625 11.0625 C11.05798828 12.01189453 11.05347656 12.96128906 11.04882812 13.93945312 C11.0370011 16.29303065 11.02052025 18.64648477 11 21 C10.34 21.33 9.68 21.66 9 22 C9 15.4 9 8.8 9 2 C6.03 1.67 3.06 1.34 0 1 C0 0.67 0 0.34 0 0 Z " fill="#16BD4D" transform="translate(333,68)"/>
<path d="M0 0 C0.99 0.33 1.98 0.66 3 1 C2.071875 1.7115625 2.071875 1.7115625 1.125 2.4375 C-2.66776736 7.01113123 -3.37746257 13.1493302 -3 19 C-5.47745294 15.28382058 -5.54553034 12.307247 -5 8 C-3.65059348 4.68782037 -2.5207227 2.5207227 0 0 Z " fill="#1A8CE6" transform="translate(282,136)"/>
<path d="M0 0 C-0.33 0.66 -0.66 1.32 -1 2 C-1.886875 1.79375 -2.77375 1.5875 -3.6875 1.375 C-7.39666429 0.95509461 -8.809197 1.11824439 -12 3 C-13.84199741 4.90778303 -15.38815165 6.88157074 -17 9 C-17.8125 7.3125 -17.8125 7.3125 -18 5 C-12.95483469 -1.02616968 -7.5645033 -2.5215011 0 0 Z " fill="#4CCE59" transform="translate(835,37)"/>
<path d="M0 0 C-1.35091524 4.42117715 -3.1650145 6.443343 -7 9 C-9.3125 9.75 -9.3125 9.75 -11 10 C-11 9.34 -11 8.68 -11 8 C-10.01 8 -9.02 8 -8 8 C-7.9071875 7.13375 -7.9071875 7.13375 -7.8125 6.25 C-6.57516782 2.82354165 -3.78322279 0 0 0 Z " fill="#E38D32" transform="translate(167,158)"/>
<path d="M0 0 C0.66 0 1.32 0 2 0 C1.67 0.99 1.34 1.98 1 3 C0.73132424 6.38616749 0.5548796 9.77189532 0.37890625 13.1640625 C0.25386719 14.09992188 0.12882813 15.03578125 0 16 C-0.66 16.33 -1.32 16.66 -2 17 C-2.05383848 14.54137599 -2.09359038 12.0839245 -2.125 9.625 C-2.14175781 8.92632812 -2.15851562 8.22765625 -2.17578125 7.5078125 C-2.19344267 5.67102514 -2.10303261 3.83398037 -2 2 C-1.34 1.34 -0.68 0.68 0 0 Z " fill="#39C264" transform="translate(726,113)"/>
<path d="M0 0 C6.93 0 13.86 0 21 0 C16 4 16 4 14 4 C14 3.01 14 2.02 14 1 C12.02 1.66 10.04 2.32 8 3 C8 2.34 8 1.68 8 1 C5.36 1 2.72 1 0 1 C0 0.67 0 0.34 0 0 Z " fill="#D9BE25" transform="translate(531,172)"/>
<path d="M0 0 C0.33 0 0.66 0 1 0 C1 2.97 1 5.94 1 9 C-1.31 8.67 -3.62 8.34 -6 8 C-5.195625 7.236875 -4.39125 6.47375 -3.5625 5.6875 C-0.83200976 3.20569102 -0.83200976 3.20569102 0 0 Z " fill="#D3AB35" transform="translate(802,108)"/>
<path d="M0 0 C0.57492187 0.21914063 1.14984375 0.43828125 1.7421875 0.6640625 C1.23429688 0.96699219 0.72640625 1.26992188 0.203125 1.58203125 C-4.28421244 4.31308868 -8.30465814 7.20505243 -12.2578125 10.6640625 C-11.10040403 5.74507652 -8.14440043 3.64876725 -4.328125 0.703125 C-2.2578125 -0.3359375 -2.2578125 -0.3359375 0 0 Z " fill="#55D466" transform="translate(681.2578125,39.3359375)"/>
<path d="M0 0 C0.66 0.66 1.32 1.32 2 2 C4.20250992 2.46006346 4.20250992 2.46006346 6.625 2.625 C7.44226563 2.69976562 8.25953125 2.77453125 9.1015625 2.8515625 C9.72804688 2.90054688 10.35453125 2.94953125 11 3 C11 3.33 11 3.66 11 4 C4.4 4 -2.2 4 -9 4 C-9 3.67 -9 3.34 -9 3 C-7.88625 2.87625 -6.7725 2.7525 -5.625 2.625 C-1.96896323 2.3534187 -1.96896323 2.3534187 0 0 Z " fill="#E8B417" transform="translate(545,191)"/>
<path d="M0 0 C4.8991349 1.29977048 9.37559575 2.92373687 14 5 C14 5.33 14 5.66 14 6 C8.14311354 6.73211081 4.4958396 4.48028193 0 1 C0 0.67 0 0.34 0 0 Z " fill="#416EA0" transform="translate(1022,184)"/>
<path d="M0 0 C2.76276177 0.52268466 5.3260876 1.10869587 8 2 C8 2.99 8 3.98 8 5 C5.03 4.01 2.06 3.02 -1 2 C-0.67 1.34 -0.34 0.68 0 0 Z " fill="#E1D23B" transform="translate(87,164)"/>
<path d="M0 0 C0 0.99 0 1.98 0 3 C-2.64 3 -5.28 3 -8 3 C-8 2.34 -8 1.68 -8 1 C-5.23735711 0.40267181 -2.83967231 0 0 0 Z " fill="#E5E584" transform="translate(219,33)"/>
<path d="M0 0 C2.35953094 2.35953094 2.49141413 3.77895617 3 7 C2.01 6.67 1.02 6.34 0 6 C0 6.99 0 7.98 0 9 C-0.66 9 -1.32 9 -2 9 C-1.34 6.03 -0.68 3.06 0 0 Z " fill="#ECE463" transform="translate(235,10)"/>
</svg>
